<svg xmlns="http://www.w3.org/2000/svg" xmlns:xlink="http://www.w3.org/1999/xlink" width="113" height="36" viewBox="0 0 113 36">
    <defs>
        <path id="a" d="M.255.073h34.983v35.109H.255z"/>
        <path id="c" d="M.612.709h5.74v.712H.612z"/>
        <path id="e" d="M0 .073h36.717v35.293H0z"/>
    </defs>
    <g fill="none" fill-rule="evenodd">
        <path fill="#EC1C25" fill-rule="nonzero" d="M76.21 22.91V0h22.065c3.023 0 5.462.222 7.23.812 5.04 1.68 7.495 6 7.495 12.774v21.782h-8.302V12.485c0-1.986-.63-3.426-1.878-4.287-.582-.403-1.707-.642-3.325-.642H84.659v27.812h-8.45v-6.131"/>
        <g transform="translate(38.105)">
            <mask id="b" fill="#fff">
                <use xlink:href="#a"/>
            </mask>
            <path fill="#EC1C25" fill-rule="nonzero" d="M31.027.073L8.794 22.815h14.138V14.57h8.234v8.245h4.072v6.274H31.14v6.093h-8.208v-6.093H.255v-7.668L20.49.073z" mask="url(#b)"/>
        </g>
        <g transform="translate(.657 34.105)">
            <mask id="d" fill="#fff">
                <use xlink:href="#c"/>
            </mask>
            <path fill="#DC2828" d="M.612 1.42h5.73l.01-.002H.613v.003z" mask="url(#d)"/>
        </g>
        <g>
            <mask id="f" fill="#fff">
                <use xlink:href="#e"/>
            </mask>
            <path fill="#EC1C25" fill-rule="nonzero" d="M35.532 19.463c-.964-2.118-2.753-3.6-5.351-4.448-1.488-.504-3.746-.75-6.757-.75h-8.093c-2.158 0-3.7-.195-4.627-.592-1.386-.59-2.075-1.729-2.075-3.416 0-1.994.827-3.194 2.479-3.59.798-.187 2.433-.293 4.893-.31h18.598V.073H14.22c-2.166 0-3.801.053-4.893.16-3.24.326-5.6 1.482-7.068 3.46C.753 5.738 0 8.007 0 10.487c0 1.5.293 2.929.891 4.271.642 1.465 1.57 2.674 2.763 3.62 1.836 1.446 4.83 2.17 8.987 2.17h9.011c1.88 0 3.258.22 4.122.67 1.506.795 2.259 2.048 2.259 3.75 0 1.484-.644 2.596-1.937 3.337-.902.52-2.69.776-5.39.776H8.659l-.003.002H1.922l.001 6.282h20.481c2.798 0 4.893-.115 6.298-.335 2.883-.468 5.048-1.907 6.481-4.315 1.02-1.713 1.534-3.638 1.534-5.773 0-1.95-.395-3.776-1.185-5.48" mask="url(#f)"/>
        </g>
    </g>
</svg>
